<?xml version="1.0" encoding="UTF-8" standalone="no"?>
<!DOCTYPE svg PUBLIC "-//W3C//DTD SVG 1.1//EN"
 "http://www.w3.org/Graphics/SVG/1.1/DTD/svg11.dtd">
<!-- Generated by graphviz version 2.43.0 (0)
 -->
<!-- Title: AITravelPlanner Pages: 1 -->
<svg width="934pt" height="949pt"
 viewBox="0.00 0.00 934.00 949.00" xmlns="http://www.w3.org/2000/svg" xmlns:xlink="http://www.w3.org/1999/xlink">
<g id="graph0" class="graph" transform="scale(1 1) rotate(0) translate(4 945)">
<title>AITravelPlanner</title>
<polygon fill="white" stroke="transparent" points="-4,4 -4,-945 930,-945 930,4 -4,4"/>
<text text-anchor="middle" x="463" y="-919.4" font-family="Arial Bold" font-size="22.00">AI Travel Planner &#45; Technology Architecture</text>
<g id="clust1" class="cluster">
<title>cluster_frontend</title>
<path fill="#e3f2fd" stroke="black" stroke-width="2" d="M138,-449C138,-449 548,-449 548,-449 554,-449 560,-455 560,-461 560,-461 560,-539 560,-539 560,-545 554,-551 548,-551 548,-551 138,-551 138,-551 132,-551 126,-545 126,-539 126,-539 126,-461 126,-461 126,-455 132,-449 138,-449"/>
<text text-anchor="middle" x="343" y="-532.6" font-family="Arial Bold" font-size="18.00" fill="#1565c0">Frontend</text>
</g>
<g id="clust2" class="cluster">
<title>cluster_backend</title>
<path fill="#e8f5e9" stroke="black" stroke-width="2" d="M376,-165C376,-165 548,-165 548,-165 554,-165 560,-171 560,-177 560,-177 560,-386 560,-386 560,-392 554,-398 548,-398 548,-398 376,-398 376,-398 370,-398 364,-392 364,-386 364,-386 364,-177 364,-177 364,-171 370,-165 376,-165"/>
<text text-anchor="middle" x="462" y="-379.6" font-family="Arial Bold" font-size="18.00" fill="#2e7d32">Backend</text>
</g>
<g id="clust3" class="cluster">
<title>cluster_ai</title>
<path fill="#fff3e0" stroke="#ff6f00" stroke-width="3" d="M20,-10C20,-10 430,-10 430,-10 436,-10 442,-16 442,-22 442,-22 442,-100 442,-100 442,-106 436,-112 430,-112 430,-112 20,-112 20,-112 14,-112 8,-106 8,-100 8,-100 8,-22 8,-22 8,-16 14,-10 20,-10"/>
<text text-anchor="middle" x="225" y="-93.6" font-family="Arial Bold" font-size="18.00" fill="#e65100">🤖 AI &amp; Automation</text>
</g>
<g id="clust4" class="cluster">
<title>cluster_database</title>
<path fill="#f3e5f5" stroke="black" stroke-width="2" d="M496,-10C496,-10 668,-10 668,-10 674,-10 680,-16 680,-22 680,-22 680,-100 680,-100 680,-106 674,-112 668,-112 668,-112 496,-112 496,-112 490,-112 484,-106 484,-100 484,-100 484,-22 484,-22 484,-16 490,-10 496,-10"/>
<text text-anchor="middle" x="582" y="-93.6" font-family="Arial Bold" font-size="18.00" fill="#6a1b9a">Database</text>
</g>
<g id="clust5" class="cluster">
<title>cluster_apis</title>
<path fill="#e0f2f1" stroke="black" stroke-width="2" d="M734,-8C734,-8 906,-8 906,-8 912,-8 918,-14 918,-20 918,-20 918,-102 918,-102 918,-108 912,-114 906,-114 906,-114 734,-114 734,-114 728,-114 722,-108 722,-102 722,-102 722,-20 722,-20 722,-14 728,-8 734,-8"/>
<text text-anchor="middle" x="820" y="-95.6" font-family="Arial Bold" font-size="18.00" fill="#00695c">Travel APIs</text>
</g>
<g id="clust6" class="cluster">
<title>cluster_devops</title>
<path fill="#ffebee" stroke="#d32f2f" stroke-width="2" d="M160,-615C160,-615 570,-615 570,-615 576,-615 582,-621 582,-627 582,-627 582,-889 582,-889 582,-895 576,-901 570,-901 570,-901 160,-901 160,-901 154,-901 148,-895 148,-889 148,-889 148,-627 148,-627 148,-621 154,-615 160,-615"/>
<text text-anchor="middle" x="365" y="-882.6" font-family="Arial Bold" font-size="18.00" fill="#c62828">🏭 DevOps &amp; Quality (Industry Standard)</text>
</g>
<!-- react -->
<g id="node1" class="node">
<title>react</title>
<path fill="#64b5f6" stroke="black" d="M540,-515C540,-515 384,-515 384,-515 378,-515 372,-509 372,-503 372,-503 372,-469 372,-469 372,-463 378,-457 384,-457 384,-457 540,-457 540,-457 546,-457 552,-463 552,-469 552,-469 552,-503 552,-503 552,-509 546,-515 540,-515"/>
<text text-anchor="middle" x="462" y="-491.2" font-family="Arial Bold" font-size="16.00" fill="white">React 18</text>
<text text-anchor="middle" x="462" y="-473.2" font-family="Arial Bold" font-size="16.00" fill="white">+ TypeScript</text>
</g>
<!-- wasp -->
<g id="node3" class="node">
<title>wasp</title>
<path fill="#66bb6a" stroke="black" d="M540,-362C540,-362 384,-362 384,-362 378,-362 372,-356 372,-350 372,-350 372,-316 372,-316 372,-310 378,-304 384,-304 384,-304 540,-304 540,-304 546,-304 552,-310 552,-316 552,-316 552,-350 552,-350 552,-356 546,-362 540,-362"/>
<text text-anchor="middle" x="462" y="-338.2" font-family="Arial Bold" font-size="16.00" fill="white">Wasp Framework</text>
<text text-anchor="middle" x="462" y="-320.2" font-family="Arial Bold" font-size="16.00" fill="white">+ Node.js</text>
</g>
<!-- react&#45;&gt;wasp -->
<g id="edge1" class="edge">
<title>react&#45;&gt;wasp</title>
<path fill="none" stroke="#2196f3" stroke-width="3" d="M462,-456.95C462,-433.08 462,-398.57 462,-372.19"/>
<polygon fill="#2196f3" stroke="#2196f3" stroke-width="3" points="465.5,-372.15 462,-362.15 458.5,-372.15 465.5,-372.15"/>
<text text-anchor="middle" x="492.5" y="-409.8" font-family="Arial" font-size="14.00">REST API</text>
</g>
<!-- vite -->
<g id="node2" class="node">
<title>vite</title>
<path fill="#64b5f6" stroke="black" d="M302,-515C302,-515 146,-515 146,-515 140,-515 134,-509 134,-503 134,-503 134,-469 134,-469 134,-463 140,-457 146,-457 146,-457 302,-457 302,-457 308,-457 314,-463 314,-469 314,-469 314,-503 314,-503 314,-509 308,-515 302,-515"/>
<text text-anchor="middle" x="224" y="-491.2" font-family="Arial Bold" font-size="16.00" fill="white">Vite</text>
<text text-anchor="middle" x="224" y="-473.2" font-family="Arial Bold" font-size="16.00" fill="white">Build Tool</text>
</g>
<!-- api -->
<g id="node4" class="node">
<title>api</title>
<path fill="#66bb6a" stroke="black" d="M540,-231C540,-231 384,-231 384,-231 378,-231 372,-225 372,-219 372,-219 372,-185 372,-185 372,-179 378,-173 384,-173 384,-173 540,-173 540,-173 546,-173 552,-179 552,-185 552,-185 552,-219 552,-219 552,-225 546,-231 540,-231"/>
<text text-anchor="middle" x="462" y="-207.2" font-family="Arial Bold" font-size="16.00" fill="white">API Services</text>
<text text-anchor="middle" x="462" y="-189.2" font-family="Arial Bold" font-size="16.00" fill="white">+ Business Logic</text>
</g>
<!-- wasp&#45;&gt;api -->
<g id="edge2" class="edge">
<title>wasp&#45;&gt;api</title>
<path fill="none" stroke="#4caf50" stroke-width="2" d="M462,-303.69C462,-285.37 462,-261.3 462,-241.29"/>
<polygon fill="#4caf50" stroke="#4caf50" stroke-width="2" points="465.5,-241.24 462,-231.24 458.5,-241.24 465.5,-241.24"/>
</g>
<!-- openai -->
<g id="node5" class="node">
<title>openai</title>
<path fill="#ff9800" stroke="black" d="M184,-76C184,-76 28,-76 28,-76 22,-76 16,-70 16,-64 16,-64 16,-30 16,-30 16,-24 22,-18 28,-18 28,-18 184,-18 184,-18 190,-18 196,-24 196,-30 196,-30 196,-64 196,-64 196,-70 190,-76 184,-76"/>
<text text-anchor="middle" x="106" y="-52.2" font-family="Arial Bold" font-size="16.00" fill="white">OpenAI GPT&#45;4o</text>
<text text-anchor="middle" x="106" y="-34.2" font-family="Arial Bold" font-size="16.00" fill="white">+ Whisper</text>
</g>
<!-- api&#45;&gt;openai -->
<g id="edge3" class="edge">
<title>api&#45;&gt;openai</title>
<path fill="none" stroke="#ff6f00" stroke-width="4" d="M375.7,-172.92C330.19,-157.22 273.82,-136.34 225,-114 203.76,-104.28 181.18,-92.23 161.46,-81.09"/>
<polygon fill="#ff6f00" stroke="#ff6f00" stroke-width="4" points="163.04,-77.96 152.62,-76.05 159.57,-84.04 163.04,-77.96"/>
<text text-anchor="middle" x="317" y="-125.8" font-family="Arial" font-size="14.00" fill="#e65100">AI Processing</text>
</g>
<!-- automation -->
<g id="node6" class="node">
<title>automation</title>
<path fill="#ff9800" stroke="black" d="M422,-76C422,-76 266,-76 266,-76 260,-76 254,-70 254,-64 254,-64 254,-30 254,-30 254,-24 260,-18 266,-18 266,-18 422,-18 422,-18 428,-18 434,-24 434,-30 434,-30 434,-64 434,-64 434,-70 428,-76 422,-76"/>
<text text-anchor="middle" x="344" y="-52.2" font-family="Arial Bold" font-size="16.00" fill="white">Browser Automation</text>
<text text-anchor="middle" x="344" y="-34.2" font-family="Arial Bold" font-size="16.00" fill="white">Puppeteer/Playwright</text>
</g>
<!-- api&#45;&gt;automation -->
<g id="edge4" class="edge">
<title>api&#45;&gt;automation</title>
<path fill="none" stroke="#ff6f00" stroke-width="3" d="M440.36,-172.94C421.12,-148 392.89,-111.39 371.95,-84.24"/>
<polygon fill="#ff6f00" stroke="#ff6f00" stroke-width="3" points="374.58,-81.92 365.71,-76.14 369.04,-86.2 374.58,-81.92"/>
<text text-anchor="middle" x="434.5" y="-125.8" font-family="Arial" font-size="14.00" fill="#e65100">Booking</text>
</g>
<!-- postgres -->
<g id="node7" class="node">
<title>postgres</title>
<path fill="#9c27b0" stroke="black" d="M660,-76C660,-76 504,-76 504,-76 498,-76 492,-70 492,-64 492,-64 492,-30 492,-30 492,-24 498,-18 504,-18 504,-18 660,-18 660,-18 666,-18 672,-24 672,-30 672,-30 672,-64 672,-64 672,-70 666,-76 660,-76"/>
<text text-anchor="middle" x="582" y="-52.2" font-family="Arial Bold" font-size="16.00" fill="white">PostgreSQL</text>
<text text-anchor="middle" x="582" y="-34.2" font-family="Arial Bold" font-size="16.00" fill="white">+ Prisma ORM</text>
</g>
<!-- api&#45;&gt;postgres -->
<g id="edge5" class="edge">
<title>api&#45;&gt;postgres</title>
<path fill="none" stroke="#9c27b0" stroke-width="3" d="M484.01,-172.94C503.57,-148 532.28,-111.39 553.58,-84.24"/>
<polygon fill="#9c27b0" stroke="#9c27b0" stroke-width="3" points="556.51,-86.17 559.93,-76.14 551,-81.85 556.51,-86.17"/>
<text text-anchor="middle" x="562" y="-125.8" font-family="Arial" font-size="14.00">Data Storage</text>
</g>
<!-- travel -->
<g id="node8" class="node">
<title>travel</title>
<path fill="#00897b" stroke="black" d="M898,-78C898,-78 742,-78 742,-78 736,-78 730,-72 730,-66 730,-66 730,-28 730,-28 730,-22 736,-16 742,-16 742,-16 898,-16 898,-16 904,-16 910,-22 910,-28 910,-28 910,-66 910,-66 910,-72 904,-78 898,-78"/>
<text text-anchor="middle" x="820" y="-61.2" font-family="Arial Bold" font-size="16.00" fill="white">SerpAPI (Flights)</text>
<text text-anchor="middle" x="820" y="-43.2" font-family="Arial Bold" font-size="16.00" fill="white">Amadeus (Hotels)</text>
<text text-anchor="middle" x="820" y="-25.2" font-family="Arial Bold" font-size="16.00" fill="white">Google Maps</text>
</g>
<!-- api&#45;&gt;travel -->
<g id="edge6" class="edge">
<title>api&#45;&gt;travel</title>
<path fill="none" stroke="#00897b" stroke-width="3" d="M544.33,-172.93C589.13,-156.96 645.21,-135.83 694,-114 714.92,-104.64 737.22,-93.4 757.16,-82.86"/>
<polygon fill="#00897b" stroke="#00897b" stroke-width="3" points="758.96,-85.87 766.15,-78.08 755.68,-79.69 758.96,-85.87"/>
<text text-anchor="middle" x="696.5" y="-125.8" font-family="Arial" font-size="14.00">Search</text>
</g>
<!-- precommit -->
<g id="node9" class="node">
<title>precommit</title>
<path fill="#ef5350" stroke="black" d="M562,-865C562,-865 406,-865 406,-865 400,-865 394,-859 394,-853 394,-853 394,-815 394,-815 394,-809 400,-803 406,-803 406,-803 562,-803 562,-803 568,-803 574,-809 574,-815 574,-815 574,-853 574,-853 574,-859 568,-865 562,-865"/>
<text text-anchor="middle" x="484" y="-848.2" font-family="Arial Bold" font-size="16.00" fill="white">Pre&#45;commit Hooks</text>
<text text-anchor="middle" x="484" y="-830.2" font-family="Arial Bold" font-size="16.00" fill="white">• Prettier • ESLint</text>
<text text-anchor="middle" x="484" y="-812.2" font-family="Arial Bold" font-size="16.00" fill="white">• TypeScript • Prisma</text>
</g>
<!-- precommit&#45;&gt;react -->
<g id="edge8" class="edge">
<title>precommit&#45;&gt;react</title>
<path fill="none" stroke="#d32f2f" stroke-width="2" stroke-dasharray="5,2" d="M482.09,-802.9C478.09,-740.03 468.86,-594.88 464.44,-525.41"/>
<polygon fill="#d32f2f" stroke="#d32f2f" stroke-width="2" points="467.93,-525.08 463.8,-515.33 460.94,-525.53 467.93,-525.08"/>
<text text-anchor="middle" x="514" y="-666.6" font-family="Arial" font-size="13.00">Code Quality</text>
<text text-anchor="middle" x="514" y="-652.6" font-family="Arial" font-size="13.00">Gate</text>
</g>
<!-- precommit&#45;&gt;wasp -->
<g id="edge7" class="edge">
<title>precommit&#45;&gt;wasp</title>
<path fill="none" stroke="#d32f2f" stroke-width="2" stroke-dasharray="5,2" d="M509.86,-802.77C529.5,-777.82 555.1,-740.52 567,-703 601.14,-595.35 613.28,-554.88 574,-449 561.97,-416.58 535.3,-388.57 510.99,-368.32"/>
<polygon fill="#d32f2f" stroke="#d32f2f" stroke-width="2" points="513.18,-365.59 503.21,-362.02 508.78,-371.03 513.18,-365.59"/>
<text text-anchor="middle" x="637" y="-576.6" font-family="Arial" font-size="13.00">Code Quality</text>
<text text-anchor="middle" x="637" y="-562.6" font-family="Arial" font-size="13.00">Gate</text>
</g>
<!-- cicd -->
<g id="node10" class="node">
<title>cicd</title>
<path fill="#ef5350" stroke="black" d="M324,-865C324,-865 168,-865 168,-865 162,-865 156,-859 156,-853 156,-853 156,-815 156,-815 156,-809 162,-803 168,-803 168,-803 324,-803 324,-803 330,-803 336,-809 336,-815 336,-815 336,-853 336,-853 336,-859 330,-865 324,-865"/>
<text text-anchor="middle" x="246" y="-848.2" font-family="Arial Bold" font-size="16.00" fill="white">GitHub Actions CI/CD</text>
<text text-anchor="middle" x="246" y="-830.2" font-family="Arial Bold" font-size="16.00" fill="white">• Automated Testing</text>
<text text-anchor="middle" x="246" y="-812.2" font-family="Arial Bold" font-size="16.00" fill="white">• Build Verification</text>
</g>
<!-- deploy -->
<g id="node11" class="node">
<title>deploy</title>
<path fill="#ef5350" stroke="black" d="M324,-703C324,-703 168,-703 168,-703 162,-703 156,-697 156,-691 156,-691 156,-635 156,-635 156,-629 162,-623 168,-623 168,-623 324,-623 324,-623 330,-623 336,-629 336,-635 336,-635 336,-691 336,-691 336,-697 330,-703 324,-703"/>
<text text-anchor="middle" x="246" y="-686.2" font-family="Arial Bold" font-size="16.00" fill="white">Production Deploy</text>
<text text-anchor="middle" x="246" y="-668.2" font-family="Arial Bold" font-size="16.00" fill="white">Netlify(Frontend)</text>
<text text-anchor="middle" x="246" y="-650.2" font-family="Arial Bold" font-size="16.00" fill="white">+ Heroku(Backend)</text>
<text text-anchor="middle" x="246" y="-632.2" font-family="Arial Bold" font-size="16.00" fill="white">+ Docker</text>
</g>
<!-- cicd&#45;&gt;deploy -->
<g id="edge9" class="edge">
<title>cicd&#45;&gt;deploy</title>
<path fill="none" stroke="#d32f2f" stroke-width="3" d="M246,-802.79C246,-778.01 246,-742.44 246,-713.51"/>
<polygon fill="#d32f2f" stroke="#d32f2f" stroke-width="3" points="249.5,-713.19 246,-703.19 242.5,-713.19 249.5,-713.19"/>
<text text-anchor="middle" x="278.5" y="-756.6" font-family="Arial" font-size="13.00">Automated</text>
<text text-anchor="middle" x="278.5" y="-742.6" font-family="Arial" font-size="13.00">Pipeline</text>
</g>
<!-- deploy&#45;&gt;react -->
<g id="edge10" class="edge">
<title>deploy&#45;&gt;react</title>
<path fill="none" stroke="#d32f2f" stroke-width="2" stroke-dasharray="5,2" d="M294.21,-622.94C331.77,-592.51 383.44,-550.65 419.48,-521.45"/>
<polygon fill="#d32f2f" stroke="#d32f2f" stroke-width="2" points="421.81,-524.07 427.37,-515.05 417.4,-518.63 421.81,-524.07"/>
</g>
<!-- deploy&#45;&gt;wasp -->
<g id="edge11" class="edge">
<title>deploy&#45;&gt;wasp</title>
<path fill="none" stroke="#d32f2f" stroke-width="2" stroke-dasharray="5,2" d="M176.99,-622.95C151.66,-604.67 125.82,-580.39 112,-551 92.71,-509.97 85.41,-485.72 112,-449 168.53,-370.92 279.81,-344.92 361.78,-336.73"/>
<polygon fill="#d32f2f" stroke="#d32f2f" stroke-width="2" points="362.24,-340.21 371.88,-335.8 361.6,-333.24 362.24,-340.21"/>
</g>
</g>
</svg>
